<mxfile host="app.diagrams.net" modified="2024-05-13T18:08:06.889Z" agent="Mozilla/5.0 (Windows NT 10.0; Win64; x64; rv:125.0) Gecko/20100101 Firefox/125.0" etag="xQw65_jsk2AruCSlp6-Y" version="24.4.0" type="github">
  <diagram id="C5RBs43oDa-KdzZeNtuy" name="Page-1">
    <mxGraphModel dx="913" dy="468" grid="1" gridSize="10" guides="1" tooltips="1" connect="1" arrows="1" fold="1" page="1" pageScale="1" pageWidth="827" pageHeight="1169" math="0" shadow="0">
      <root>
        <mxCell id="WIyWlLk6GJQsqaUBKTNV-0" />
        <mxCell id="WIyWlLk6GJQsqaUBKTNV-1" parent="WIyWlLk6GJQsqaUBKTNV-0" />
        <mxCell id="WIyWlLk6GJQsqaUBKTNV-2" value="" style="rounded=0;html=1;jettySize=auto;orthogonalLoop=1;fontSize=11;endArrow=block;endFill=0;endSize=8;strokeWidth=1;shadow=0;labelBackgroundColor=none;edgeStyle=orthogonalEdgeStyle;" parent="WIyWlLk6GJQsqaUBKTNV-1" source="WIyWlLk6GJQsqaUBKTNV-3" target="7fpEvCZmWSPsz_Cj9TFI-0" edge="1">
          <mxGeometry relative="1" as="geometry">
            <mxPoint x="380" y="130" as="targetPoint" />
          </mxGeometry>
        </mxCell>
        <mxCell id="WIyWlLk6GJQsqaUBKTNV-3" value="Sākums" style="rounded=1;whiteSpace=wrap;html=1;fontSize=12;glass=0;strokeWidth=1;shadow=0;" parent="WIyWlLk6GJQsqaUBKTNV-1" vertex="1">
          <mxGeometry x="320" y="40" width="120" height="40" as="geometry" />
        </mxCell>
        <mxCell id="WIyWlLk6GJQsqaUBKTNV-8" value="Nē" style="rounded=0;html=1;jettySize=auto;orthogonalLoop=1;fontSize=11;endArrow=block;endFill=0;endSize=8;strokeWidth=1;shadow=0;labelBackgroundColor=none;edgeStyle=orthogonalEdgeStyle;" parent="WIyWlLk6GJQsqaUBKTNV-1" source="WIyWlLk6GJQsqaUBKTNV-10" edge="1">
          <mxGeometry x="0.3333" y="20" relative="1" as="geometry">
            <mxPoint as="offset" />
            <mxPoint x="380" y="390" as="targetPoint" />
            <Array as="points">
              <mxPoint x="380" y="360" />
              <mxPoint x="380" y="360" />
            </Array>
          </mxGeometry>
        </mxCell>
        <mxCell id="WIyWlLk6GJQsqaUBKTNV-9" value="Jā" style="edgeStyle=orthogonalEdgeStyle;rounded=0;html=1;jettySize=auto;orthogonalLoop=1;fontSize=11;endArrow=block;endFill=0;endSize=8;strokeWidth=1;shadow=0;labelBackgroundColor=none;" parent="WIyWlLk6GJQsqaUBKTNV-1" source="WIyWlLk6GJQsqaUBKTNV-10" edge="1">
          <mxGeometry x="-0.2084" y="10" relative="1" as="geometry">
            <mxPoint as="offset" />
            <mxPoint x="480" y="290" as="targetPoint" />
          </mxGeometry>
        </mxCell>
        <mxCell id="WIyWlLk6GJQsqaUBKTNV-10" value="Vai vārds ir pareizs ? " style="rhombus;whiteSpace=wrap;html=1;shadow=0;fontFamily=Helvetica;fontSize=12;align=center;strokeWidth=1;spacing=6;spacingTop=-4;" parent="WIyWlLk6GJQsqaUBKTNV-1" vertex="1">
          <mxGeometry x="330" y="250" width="100" height="80" as="geometry" />
        </mxCell>
        <mxCell id="7fpEvCZmWSPsz_Cj9TFI-0" value="Spēlētājs ievāda 5 būrtu vārds " style="rounded=0;whiteSpace=wrap;html=1;" vertex="1" parent="WIyWlLk6GJQsqaUBKTNV-1">
          <mxGeometry x="320" y="140" width="120" height="60" as="geometry" />
        </mxCell>
        <mxCell id="7fpEvCZmWSPsz_Cj9TFI-3" value="Spēlēt vēlreiz?" style="rhombus;whiteSpace=wrap;html=1;" vertex="1" parent="WIyWlLk6GJQsqaUBKTNV-1">
          <mxGeometry x="480" y="250" width="80" height="80" as="geometry" />
        </mxCell>
        <mxCell id="7fpEvCZmWSPsz_Cj9TFI-6" value="" style="rounded=0;html=1;jettySize=auto;orthogonalLoop=1;fontSize=11;endArrow=block;endFill=0;endSize=8;strokeWidth=1;shadow=0;labelBackgroundColor=none;edgeStyle=orthogonalEdgeStyle;exitX=0.5;exitY=1;exitDx=0;exitDy=0;" edge="1" parent="WIyWlLk6GJQsqaUBKTNV-1" source="7fpEvCZmWSPsz_Cj9TFI-0">
          <mxGeometry relative="1" as="geometry">
            <mxPoint x="380" y="210" as="sourcePoint" />
            <mxPoint x="379.76" y="250" as="targetPoint" />
          </mxGeometry>
        </mxCell>
        <mxCell id="7fpEvCZmWSPsz_Cj9TFI-7" value="" style="rounded=0;html=1;jettySize=auto;orthogonalLoop=1;fontSize=11;endArrow=block;endFill=0;endSize=8;strokeWidth=1;shadow=0;labelBackgroundColor=none;edgeStyle=orthogonalEdgeStyle;exitX=0.494;exitY=-0.033;exitDx=0;exitDy=0;exitPerimeter=0;entryX=1;entryY=0;entryDx=0;entryDy=0;" edge="1" parent="WIyWlLk6GJQsqaUBKTNV-1" source="7fpEvCZmWSPsz_Cj9TFI-3" target="7fpEvCZmWSPsz_Cj9TFI-0">
          <mxGeometry relative="1" as="geometry">
            <mxPoint x="400" y="100" as="sourcePoint" />
            <mxPoint x="470" y="140" as="targetPoint" />
            <Array as="points">
              <mxPoint x="460" y="247" />
              <mxPoint x="460" y="200" />
              <mxPoint x="471" y="200" />
              <mxPoint x="471" y="170" />
              <mxPoint x="500" y="170" />
              <mxPoint x="500" y="140" />
            </Array>
          </mxGeometry>
        </mxCell>
        <mxCell id="7fpEvCZmWSPsz_Cj9TFI-8" value="" style="rounded=0;html=1;jettySize=auto;orthogonalLoop=1;fontSize=11;endArrow=block;endFill=0;endSize=8;strokeWidth=1;shadow=0;labelBackgroundColor=none;edgeStyle=orthogonalEdgeStyle;" edge="1" parent="WIyWlLk6GJQsqaUBKTNV-1" target="7fpEvCZmWSPsz_Cj9TFI-9">
          <mxGeometry relative="1" as="geometry">
            <mxPoint x="519.76" y="330" as="sourcePoint" />
            <mxPoint x="519.76" y="390" as="targetPoint" />
          </mxGeometry>
        </mxCell>
        <mxCell id="7fpEvCZmWSPsz_Cj9TFI-9" value="Beigās" style="rounded=1;whiteSpace=wrap;html=1;" vertex="1" parent="WIyWlLk6GJQsqaUBKTNV-1">
          <mxGeometry x="459.76" y="360" width="120" height="60" as="geometry" />
        </mxCell>
        <mxCell id="7fpEvCZmWSPsz_Cj9TFI-10" value="Nē" style="text;html=1;align=center;verticalAlign=middle;whiteSpace=wrap;rounded=0;" vertex="1" parent="WIyWlLk6GJQsqaUBKTNV-1">
          <mxGeometry x="519.76" y="340" width="30.24" height="10" as="geometry" />
        </mxCell>
        <mxCell id="7fpEvCZmWSPsz_Cj9TFI-11" value="&lt;font style=&quot;font-size: 8px;&quot;&gt;Ir pareizs būrts/ būrti pareizā vietā?&lt;/font&gt;" style="rhombus;whiteSpace=wrap;html=1;" vertex="1" parent="WIyWlLk6GJQsqaUBKTNV-1">
          <mxGeometry x="332.5" y="390" width="95" height="100" as="geometry" />
        </mxCell>
        <mxCell id="7fpEvCZmWSPsz_Cj9TFI-12" value="" style="rounded=0;html=1;jettySize=auto;orthogonalLoop=1;fontSize=11;endArrow=block;endFill=0;endSize=8;strokeWidth=1;shadow=0;labelBackgroundColor=none;edgeStyle=orthogonalEdgeStyle;" edge="1" parent="WIyWlLk6GJQsqaUBKTNV-1">
          <mxGeometry relative="1" as="geometry">
            <mxPoint x="330" y="440" as="sourcePoint" />
            <mxPoint x="250" y="460" as="targetPoint" />
          </mxGeometry>
        </mxCell>
        <mxCell id="7fpEvCZmWSPsz_Cj9TFI-13" value="" style="rounded=0;html=1;jettySize=auto;orthogonalLoop=1;fontSize=11;endArrow=block;endFill=0;endSize=8;strokeWidth=1;shadow=0;labelBackgroundColor=none;edgeStyle=orthogonalEdgeStyle;exitX=1;exitY=0.5;exitDx=0;exitDy=0;entryX=1;entryY=0.5;entryDx=0;entryDy=0;" edge="1" parent="WIyWlLk6GJQsqaUBKTNV-1" source="7fpEvCZmWSPsz_Cj9TFI-11" target="7fpEvCZmWSPsz_Cj9TFI-19">
          <mxGeometry relative="1" as="geometry">
            <mxPoint x="454.99" y="460" as="sourcePoint" />
            <mxPoint x="424.09000000000003" y="550.6999999999999" as="targetPoint" />
          </mxGeometry>
        </mxCell>
        <mxCell id="7fpEvCZmWSPsz_Cj9TFI-14" value="Jā" style="text;html=1;align=center;verticalAlign=middle;whiteSpace=wrap;rounded=0;" vertex="1" parent="WIyWlLk6GJQsqaUBKTNV-1">
          <mxGeometry x="260" y="410" width="60" height="30" as="geometry" />
        </mxCell>
        <mxCell id="7fpEvCZmWSPsz_Cj9TFI-15" value="&lt;div&gt;Būrts tik iekrāsots zaļā krāsā&lt;br&gt;&lt;/div&gt;" style="rounded=0;whiteSpace=wrap;html=1;" vertex="1" parent="WIyWlLk6GJQsqaUBKTNV-1">
          <mxGeometry x="200" y="460" width="100" height="50" as="geometry" />
        </mxCell>
        <mxCell id="7fpEvCZmWSPsz_Cj9TFI-16" value="Nē" style="text;html=1;align=center;verticalAlign=middle;whiteSpace=wrap;rounded=0;" vertex="1" parent="WIyWlLk6GJQsqaUBKTNV-1">
          <mxGeometry x="427.5" y="470" width="60" height="30" as="geometry" />
        </mxCell>
        <mxCell id="7fpEvCZmWSPsz_Cj9TFI-17" value="" style="rounded=0;html=1;jettySize=auto;orthogonalLoop=1;fontSize=11;endArrow=block;endFill=0;endSize=8;strokeWidth=1;shadow=0;labelBackgroundColor=none;edgeStyle=orthogonalEdgeStyle;entryX=1;entryY=0;entryDx=0;entryDy=0;" edge="1" parent="WIyWlLk6GJQsqaUBKTNV-1" target="7fpEvCZmWSPsz_Cj9TFI-25">
          <mxGeometry relative="1" as="geometry">
            <mxPoint x="363.71" y="600" as="sourcePoint" />
            <mxPoint x="363.71" y="660" as="targetPoint" />
          </mxGeometry>
        </mxCell>
        <mxCell id="7fpEvCZmWSPsz_Cj9TFI-19" value="&lt;font style=&quot;font-size: 8px;&quot;&gt;Vai kāds būrts ir pareizā vietā?&lt;br&gt;&lt;/font&gt;" style="rhombus;whiteSpace=wrap;html=1;" vertex="1" parent="WIyWlLk6GJQsqaUBKTNV-1">
          <mxGeometry x="320" y="500" width="94" height="100" as="geometry" />
        </mxCell>
        <mxCell id="7fpEvCZmWSPsz_Cj9TFI-21" value="" style="rounded=0;html=1;jettySize=auto;orthogonalLoop=1;fontSize=11;endArrow=block;endFill=0;endSize=8;strokeWidth=1;shadow=0;labelBackgroundColor=none;edgeStyle=orthogonalEdgeStyle;exitX=0;exitY=0.5;exitDx=0;exitDy=0;" edge="1" parent="WIyWlLk6GJQsqaUBKTNV-1" source="7fpEvCZmWSPsz_Cj9TFI-19">
          <mxGeometry relative="1" as="geometry">
            <mxPoint x="280" y="540" as="sourcePoint" />
            <mxPoint x="240" y="580" as="targetPoint" />
            <Array as="points">
              <mxPoint x="280" y="550" />
            </Array>
          </mxGeometry>
        </mxCell>
        <mxCell id="7fpEvCZmWSPsz_Cj9TFI-22" value="Nē" style="text;html=1;align=center;verticalAlign=middle;whiteSpace=wrap;rounded=0;" vertex="1" parent="WIyWlLk6GJQsqaUBKTNV-1">
          <mxGeometry x="320" y="600" width="60" height="30" as="geometry" />
        </mxCell>
        <mxCell id="7fpEvCZmWSPsz_Cj9TFI-23" value="Jā" style="text;html=1;align=center;verticalAlign=middle;whiteSpace=wrap;rounded=0;" vertex="1" parent="WIyWlLk6GJQsqaUBKTNV-1">
          <mxGeometry x="260" y="520" width="60" height="30" as="geometry" />
        </mxCell>
        <mxCell id="7fpEvCZmWSPsz_Cj9TFI-24" value="Būrts tik iekrāsots dzēltēnā krāsā" style="rounded=0;whiteSpace=wrap;html=1;" vertex="1" parent="WIyWlLk6GJQsqaUBKTNV-1">
          <mxGeometry x="130" y="550" width="110" height="55" as="geometry" />
        </mxCell>
        <mxCell id="7fpEvCZmWSPsz_Cj9TFI-25" value="&lt;font style=&quot;font-size: 9px;&quot;&gt;Ir atlikūsi meģinājumi? &lt;/font&gt;" style="rhombus;whiteSpace=wrap;html=1;" vertex="1" parent="WIyWlLk6GJQsqaUBKTNV-1">
          <mxGeometry x="274" y="650" width="80" height="80" as="geometry" />
        </mxCell>
        <mxCell id="7fpEvCZmWSPsz_Cj9TFI-26" value="" style="rounded=0;html=1;jettySize=auto;orthogonalLoop=1;fontSize=11;endArrow=block;endFill=0;endSize=8;strokeWidth=1;shadow=0;labelBackgroundColor=none;edgeStyle=orthogonalEdgeStyle;entryX=0;entryY=0.5;entryDx=0;entryDy=0;" edge="1" parent="WIyWlLk6GJQsqaUBKTNV-1" target="7fpEvCZmWSPsz_Cj9TFI-25">
          <mxGeometry relative="1" as="geometry">
            <mxPoint x="184.63" y="605" as="sourcePoint" />
            <mxPoint x="184.63" y="665" as="targetPoint" />
          </mxGeometry>
        </mxCell>
        <mxCell id="7fpEvCZmWSPsz_Cj9TFI-27" value="Jā" style="text;html=1;align=center;verticalAlign=middle;whiteSpace=wrap;rounded=0;" vertex="1" parent="WIyWlLk6GJQsqaUBKTNV-1">
          <mxGeometry x="220" y="620" width="60" height="30" as="geometry" />
        </mxCell>
        <mxCell id="7fpEvCZmWSPsz_Cj9TFI-29" value="" style="rounded=0;html=1;jettySize=auto;orthogonalLoop=1;fontSize=11;endArrow=block;endFill=0;endSize=8;strokeWidth=1;shadow=0;labelBackgroundColor=none;edgeStyle=orthogonalEdgeStyle;" edge="1" parent="WIyWlLk6GJQsqaUBKTNV-1">
          <mxGeometry relative="1" as="geometry">
            <mxPoint x="313.66" y="730" as="sourcePoint" />
            <mxPoint x="320" y="160" as="targetPoint" />
            <Array as="points">
              <mxPoint x="314" y="840" />
              <mxPoint x="60" y="840" />
            </Array>
          </mxGeometry>
        </mxCell>
        <mxCell id="7fpEvCZmWSPsz_Cj9TFI-30" value="" style="rounded=0;html=1;jettySize=auto;orthogonalLoop=1;fontSize=11;endArrow=block;endFill=0;endSize=8;strokeWidth=1;shadow=0;labelBackgroundColor=none;edgeStyle=orthogonalEdgeStyle;exitX=1;exitY=0.5;exitDx=0;exitDy=0;" edge="1" parent="WIyWlLk6GJQsqaUBKTNV-1" target="7fpEvCZmWSPsz_Cj9TFI-9">
          <mxGeometry relative="1" as="geometry">
            <mxPoint x="354" y="690.18" as="sourcePoint" />
            <mxPoint x="526.96" y="420.00000000000006" as="targetPoint" />
            <Array as="points">
              <mxPoint x="354" y="760" />
              <mxPoint x="510" y="760" />
              <mxPoint x="510" y="420" />
            </Array>
          </mxGeometry>
        </mxCell>
        <mxCell id="7fpEvCZmWSPsz_Cj9TFI-31" value="Nē" style="text;html=1;align=center;verticalAlign=middle;whiteSpace=wrap;rounded=0;" vertex="1" parent="WIyWlLk6GJQsqaUBKTNV-1">
          <mxGeometry x="390" y="730" width="60" height="30" as="geometry" />
        </mxCell>
        <mxCell id="7fpEvCZmWSPsz_Cj9TFI-32" value="Jā" style="text;html=1;align=center;verticalAlign=middle;whiteSpace=wrap;rounded=0;" vertex="1" parent="WIyWlLk6GJQsqaUBKTNV-1">
          <mxGeometry x="270" y="740" width="60" height="30" as="geometry" />
        </mxCell>
      </root>
    </mxGraphModel>
  </diagram>
</mxfile>
